<?xml version="1.0" encoding="utf-8"?>
<!-- Generator: Adobe Illustrator 21.0.2, SVG Export Plug-In . SVG Version: 6.00 Build 0)  -->
<svg version="1.1" id="Layer_1" xmlns="http://www.w3.org/2000/svg" xmlns:xlink="http://www.w3.org/1999/xlink" x="0px" y="0px"
	 width="100px" height="100px" viewBox="0 0 100 100" style="enable-background:new 0 0 100 100;" xml:space="preserve">
<style type="text/css">
	.st0{fill:#FFFFFF;}
	.st1{fill:url(#SVGID_1_);}
	.st2{fill:none;}
	.st3{fill:url(#SVGID_2_);}
	.st4{fill:url(#SVGID_3_);}
	.st5{fill:url(#SVGID_4_);}
</style>
<g>
	<path class="st0" d="M59.9,49.3c-0.7-4-3.1-7.7-6.4-9.9c-3.6-2.3-7.9-3.2-12.1-3.3c-3.9,0-7.9,0-11.9,0c0,8.9,0,17.9,0,26.7h9.1
		L33.1,71c2.6,0,5.1,0,7.8,0c3.3,0,6.5-0.4,9.6-1.7c3.6-1.4,6.6-4,8.2-7.5C60.4,58.1,60.7,53.6,59.9,49.3z M50.9,55.9
		c-0.4,2.2-1.7,4.4-3.7,5.5c-2.6,1.6-5.8,1.6-8.8,1.5c0-6.2,0-12.3,0-18.5c2.1,0,4.1-0.1,6.2,0.5c2.1,0.5,4.1,1.7,5.2,3.6
		C51.1,50.7,51.3,53.5,50.9,55.9z"/>
	
		<linearGradient id="SVGID_1_" gradientUnits="userSpaceOnUse" x1="92.4952" y1="-19.6518" x2="7.5048" y2="-72.3482" gradientTransform="matrix(1 0 0 1 0 96)">
		<stop  offset="0" style="stop-color:#808285"/>
		<stop  offset="0.9946" style="stop-color:#231F20"/>
	</linearGradient>
	<path class="st1" d="M50,0C22.4,0,0,22.4,0,50s22.4,50,50,50s50-22.4,50-50S77.6,0,50,0z M50.8,94C27.4,94,8.6,75,8.6,51.8
		c0-23.4,19-42.2,42.2-42.2S93,28.6,93,51.8S74.1,94,50.8,94z"/>
	<g>
		<path class="st2" d="M71.7,53.4c0,10.4-5.4,19.4-13.6,24.6c0.9,0.1,2,0.1,2.9,0.1c19.3,0,34.9-15.6,34.9-34.9S80.3,8.3,61,8.3
			c-13.4,0-25,7.5-30.7,18.5c3.7-1.8,7.9-2.7,12.3-2.7C58.6,24.3,71.7,37.3,71.7,53.4z"/>
		
			<linearGradient id="SVGID_2_" gradientUnits="userSpaceOnUse" x1="34.9408" y1="-82.4592" x2="86.859" y2="-22.0987" gradientTransform="matrix(1 0 0 1 0 96)">
			<stop  offset="0" style="stop-color:#808285"/>
			<stop  offset="0.9946" style="stop-color:#231F20"/>
		</linearGradient>
		<path class="st3" d="M59.1,5.4c-18,0-33.3,12.1-38.1,28.5c2.6-2.9,5.7-5.2,9.3-6.9C36.2,16,47.8,8.5,61.1,8.5
			C80.4,8.5,96,24.1,96,43.4S80.3,78.2,61,78.2c-0.9,0-2-0.1-2.9-0.1c-3.8,2.4-8.3,4-13.2,4.4c4.4,1.7,9.2,2.6,14.2,2.6
			c22,0,39.8-17.9,39.8-39.8S81.1,5.4,59.1,5.4z"/>
	</g>
	<g>
		<path class="st2" d="M71.7,53.4c0,16.1-13.1,29.2-29.2,29.2c-6.9,0-13.3-2.4-18.2-6.4c5.7,9.5,16.2,15.9,28.1,15.9
			C70.6,92,85.2,77.3,85.2,59.2c0-17.8-14-32.1-31.6-32.7C64.2,30.8,71.7,41.2,71.7,53.4z"/>
		
			<linearGradient id="SVGID_3_" gradientUnits="userSpaceOnUse" x1="29.7124" y1="-6.2751" x2="83.3656" y2="-59.928" gradientTransform="matrix(1 0 0 1 0 96)">
			<stop  offset="0" style="stop-color:#808285"/>
			<stop  offset="0.9946" style="stop-color:#231F20"/>
		</linearGradient>
		<path class="st4" d="M54.7,23.2c-3.4,0-6.6,0.5-9.7,1.2c3,0.3,5.9,0.9,8.6,2.1c17.6,0.7,31.6,15,31.6,32.7
			C85.2,77.3,70.5,92,52.4,92c-12,0-22.3-6.4-28.1-15.9c-2.7-2.2-5-5-6.9-7.9c3.3,17.6,18.7,30.9,37.3,30.9
			c20.9,0,37.9-17,37.9-37.9S75.7,23.2,54.7,23.2z"/>
	</g>
	
		<linearGradient id="SVGID_4_" gradientUnits="userSpaceOnUse" x1="72.0175" y1="-19.8834" x2="7.5094" y2="-59.8802" gradientTransform="matrix(1 0 0 1 0 96)">
		<stop  offset="0" style="stop-color:#808285"/>
		<stop  offset="0.9946" style="stop-color:#231F20"/>
	</linearGradient>
	<path class="st5" d="M39.7,18.2c-20.9,0-37.9,17-37.9,37.9S18.8,94,39.7,94s37.9-16.9,37.9-37.9C77.7,35.2,60.7,18.2,39.7,18.2z
		 M42.5,82.5c-16.1,0-29.2-13-29.2-29.2s13-29.2,29.2-29.2c16.1,0.1,29.2,13.1,29.2,29.2S58.6,82.5,42.5,82.5z"/>
</g>
</svg>
