<?xml version="1.0" encoding="utf-8"?>
<!-- Generator: Adobe Illustrator 21.0.2, SVG Export Plug-In . SVG Version: 6.00 Build 0)  -->
<svg version="1.1" id="Layer_1" xmlns="http://www.w3.org/2000/svg" xmlns:xlink="http://www.w3.org/1999/xlink" x="0px" y="0px"
	 width="100px" height="100px" viewBox="0 0 100 100" style="enable-background:new 0 0 100 100;" xml:space="preserve">
<style type="text/css">
	.st0{fill:#FFFFFF;}
	.st1{fill:url(#SVGID_1_);}
	.st2{fill:none;}
	.st3{fill:url(#SVGID_2_);}
	.st4{fill:url(#SVGID_3_);}
	.st5{fill:url(#SVGID_4_);}
</style>
<g>
	<path class="st0" d="M53.9,61.2H38.5c1.5-2.1,4.4-3.3,8.5-4.9c4.9-1.8,9.3-3.9,9.3-10.5c0-6.9-5-11.1-14-11.1
		c-8.8,0-13.6,3.8-13.6,9c0,3.5,5.3,3.9,6.9,3.6c0.7-1.9,2.7-4.3,6-4.3c3,0,4.7,1,4.7,3.3s-3.4,3-7.3,4.9
		c-4.6,2.1-10.5,5.4-10.5,11.5V64v0.7V67c0,1.5,1.2,2.7,2.7,2.7h3.6l0,0h19.1c1.5,0,2.7-1.2,2.7-2.7v-3.2
		C56.6,62.4,55.4,61.2,53.9,61.2z"/>
	
		<linearGradient id="SVGID_1_" gradientUnits="userSpaceOnUse" x1="92.5014" y1="-21.6618" x2="7.511" y2="-74.3581" gradientTransform="matrix(1 0 0 1 0 98)">
		<stop  offset="0" style="stop-color:#BB4897"/>
		<stop  offset="1" style="stop-color:#5D2D7C"/>
	</linearGradient>
	<path class="st1" d="M50,0C22.4,0,0,22.4,0,50s22.4,50,50,50s50-22.4,50-50S77.7,0,50,0z M50.8,94C27.4,94,8.6,75,8.6,51.8
		c0-23.4,19-42.2,42.2-42.2S93,28.6,93,51.8C93.2,75,74.2,94,50.8,94z"/>
	<g>
		<path class="st2" d="M71.7,53.4c0,10.4-5.4,19.4-13.6,24.6c0.9,0.1,2,0.1,2.9,0.1c19.3,0,34.9-15.6,34.9-34.9S80.3,8.3,61,8.3
			c-13.4,0-25,7.5-30.7,18.5c3.7-1.8,7.9-2.7,12.3-2.7C58.7,24.3,71.7,37.3,71.7,53.4z"/>
		
			<linearGradient id="SVGID_2_" gradientUnits="userSpaceOnUse" x1="54.3221" y1="-92.3542" x2="68.1596" y2="-13.8784" gradientTransform="matrix(1 0 0 1 0 98)">
			<stop  offset="0" style="stop-color:#BB4897"/>
			<stop  offset="1" style="stop-color:#5D2D7C"/>
		</linearGradient>
		<path class="st3" d="M59.2,5.4c-18,0-33.3,12.1-38.1,28.5c2.6-2.9,5.7-5.2,9.3-6.9C36.3,16,47.9,8.5,61.1,8.5
			C80.4,8.5,96,24.1,96,43.4S80.3,78.2,61,78.2c-0.9,0-2-0.1-2.9-0.1c-3.8,2.4-8.3,4-13.2,4.4c4.4,1.7,9.2,2.6,14.2,2.6
			c22,0,39.8-17.9,39.8-39.8S81.1,5.4,59.2,5.4z"/>
	</g>
	
		<linearGradient id="SVGID_3_" gradientUnits="userSpaceOnUse" x1="29.7901" y1="-8.2526" x2="83.4449" y2="-61.9075" gradientTransform="matrix(1 0 0 1 0 98)">
		<stop  offset="0" style="stop-color:#BB4897"/>
		<stop  offset="1" style="stop-color:#5D2D7C"/>
	</linearGradient>
	<path class="st4" d="M54.8,23.2c-3.4,0-6.6,0.5-9.7,1.2c3,0.3,5.9,0.9,8.6,2.1c17.6,0.7,31.6,15,31.6,32.8
		c0,18.1-14.7,32.8-32.8,32.8c-12,0-22.3-6.4-28.1-15.9c-2.7-2.2-5-5-6.9-7.9c3.2,17.5,18.6,30.9,37.2,30.9
		c20.9,0,37.9-17,37.9-37.9S75.7,23.2,54.8,23.2z"/>
	
		<linearGradient id="SVGID_4_" gradientUnits="userSpaceOnUse" x1="72.1067" y1="-21.8764" x2="7.5985" y2="-61.8731" gradientTransform="matrix(1 0 0 1 0 98)">
		<stop  offset="0" style="stop-color:#BB4897"/>
		<stop  offset="1" style="stop-color:#5D2D7C"/>
	</linearGradient>
	<path class="st5" d="M39.8,18.2c-20.9,0-37.9,17-37.9,37.9S18.9,94,39.8,94s37.9-16.9,37.9-37.9C77.8,35.2,60.7,18.2,39.8,18.2z
		 M42.6,82.5c-16.1,0-29.2-13-29.2-29.2s13-29.2,29.2-29.2c16.1,0,29.2,13,29.2,29.2S58.7,82.5,42.6,82.5z"/>
	<path class="st2" d="M71.7,53.4c0,16.1-13,29.2-29.2,29.2c-6.9,0-13.3-2.4-18.2-6.4c5.7,9.5,16.2,15.9,28.1,15.9
		c18.1,0,32.8-14.7,32.8-32.8c0-17.8-14-32.1-31.6-32.7C64.2,30.8,71.7,41.2,71.7,53.4z"/>
</g>
</svg>
